# 3ds Max Wavefront OBJ Exporter v0.97b - (c)2007 guruware
# File Created: 04.12.2014 17:05:04

#
# object Box024
#

v  -220.3428 810.2768 5.2640
v  -220.3428 810.2768 -5.2640
v  -220.3429 -9.7232 -5.2640
v  -220.3429 -9.7232 5.2640
v  -200.3428 810.2768 20.0000
v  -200.3429 -9.7232 20.0000
v  -200.3429 -9.7232 -20.0000
v  -200.3428 810.2768 -20.0000
v  -205.6068 810.2768 20.0000
v  -205.6068 -9.7232 20.0000
v  -219.9335 -9.7232 -9.7666
v  -218.7055 -9.7232 -13.4507
v  -216.6589 -9.7232 -16.3160
v  -213.7935 -9.7232 -18.3627
v  -210.1095 -9.7232 -19.5907
v  -205.6068 -9.7232 -20.0000
v  -219.9335 -9.7232 9.7666
v  -218.7055 -9.7232 13.4507
v  -216.6589 -9.7232 16.3160
v  -213.7935 -9.7232 18.3627
v  -210.1095 -9.7232 19.5907
v  -205.6068 810.2768 -20.0000
v  -219.9335 810.2768 9.7666
v  -218.7055 810.2768 13.4507
v  -216.6588 810.2768 16.3160
v  -213.7935 810.2768 18.3627
v  -210.1095 810.2768 19.5907
v  -219.9335 810.2768 -9.7666
v  -218.7055 810.2768 -13.4507
v  -216.6588 810.2768 -16.3160
v  -213.7935 810.2768 -18.3627
v  -210.1095 810.2768 -19.5907
v  -200.3428 -9.7232 20.0000
v  -200.3428 -9.7232 -20.0000
v  199.6571 -9.7232 -20.0000
v  199.6571 -9.7232 20.0000
v  -200.3428 10.2768 20.0000
v  199.6571 10.2768 20.0000
v  199.6571 10.2768 -20.0000
v  -200.3428 10.2768 -20.0000
v  199.6572 810.2768 20.0000
v  199.6572 810.2768 -20.0000
v  219.6572 810.2768 3.5477
v  219.6571 -9.7232 3.5477
v  219.6571 -9.7232 -3.5477
v  219.6572 810.2768 -3.5477
v  203.2048 -9.7232 20.0000
v  203.2048 810.2768 20.0000
v  203.2048 -9.7232 -20.0000
v  209.1276 -9.7232 -19.3419
v  213.7343 -9.7232 -17.3676
v  217.0247 -9.7232 -14.0772
v  218.9990 -9.7232 -9.4705
v  218.9990 -9.7232 9.4705
v  217.0247 -9.7232 14.0772
v  213.7343 -9.7232 17.3676
v  209.1276 -9.7232 19.3419
v  203.2048 810.2768 -20.0000
v  209.1277 810.2768 19.3419
v  213.7344 810.2768 17.3676
v  217.0248 810.2768 14.0772
v  218.9991 810.2768 9.4705
v  218.9991 810.2768 -9.4705
v  217.0248 810.2768 -14.0772
v  213.7344 810.2768 -17.3676
v  209.1277 810.2768 -19.3419
# 66 vertices

vn -0.9990 0.0000 0.0453
vn -0.9990 0.0000 -0.0453
vn 1.0000 -0.0000 -0.0000
vn -0.0453 0.0000 0.9990
vn 0.0000 0.0000 1.0000
vn -0.0000 -1.0000 -0.0000
vn -0.0453 0.0000 -0.9990
vn 0.0000 0.0000 -1.0000
vn 0.0000 1.0000 -0.0000
vn -0.9788 0.0000 -0.2047
vn -0.9788 0.0000 0.2047
vn -0.8911 0.0000 -0.4538
vn -0.7071 0.0000 -0.7071
vn -0.4538 0.0000 -0.8911
vn -0.2047 0.0000 -0.9788
vn -0.8911 0.0000 0.4538
vn -0.7071 0.0000 0.7071
vn -0.4538 0.0000 0.8911
vn -0.2047 0.0000 0.9788
vn -1.0000 0.0000 -0.0000
vn 0.9985 -0.0000 0.0553
vn 0.9985 -0.0000 -0.0553
vn 0.0553 -0.0000 0.9985
vn 0.0553 -0.0000 -0.9985
vn 0.9670 -0.0000 0.2549
vn 0.9670 -0.0000 -0.2549
vn 0.8281 -0.0000 0.5606
vn 0.5606 -0.0000 0.8281
vn 0.2549 -0.0000 0.9670
vn 0.8281 -0.0000 -0.5606
vn 0.5606 -0.0000 -0.8281
vn 0.2549 -0.0000 -0.9670
# 32 vertex normals

vt 1.0000 0.3684 0.0000
vt 1.0000 0.6316 0.0000
vt 0.0000 0.6316 0.0000
vt 0.0000 0.3684 0.0000
vt 0.0000 0.0000 0.0000
vt 1.0000 0.0000 0.0000
vt 1.0000 1.0000 0.0000
vt 0.0000 1.0000 0.0000
vt 0.0000 0.7368 0.0000
vt 1.0000 0.7368 0.0000
vt 0.3684 0.0000 0.0000
vt 0.6316 0.0000 0.0000
vt 0.7442 0.0205 0.0000
vt 0.8363 0.0819 0.0000
vt 0.9079 0.1842 0.0000
vt 0.9591 0.3275 0.0000
vt 0.9898 0.5117 0.0000
vt 0.2558 0.0205 0.0000
vt 0.1637 0.0819 0.0000
vt 0.0921 0.1842 0.0000
vt 0.0409 0.3275 0.0000
vt 0.0102 0.5117 0.0000
vt 0.0000 0.4131 0.0000
vt 0.0000 0.3483 0.0000
vt 1.0000 0.3483 0.0000
vt 1.0000 0.4131 0.0000
vt 0.0000 0.4778 0.0000
vt 1.0000 0.4778 0.0000
vt 0.0000 0.5426 0.0000
vt 1.0000 0.5426 0.0000
vt 0.0000 0.6073 0.0000
vt 1.0000 0.6073 0.0000
vt 0.0000 0.6721 0.0000
vt 1.0000 0.6721 0.0000
vt 0.0000 0.4113 0.0000
vt 1.0000 0.4113 0.0000
vt 1.0000 0.5887 0.0000
vt 0.0000 0.5887 0.0000
vt 1.0000 0.1774 0.0000
vt 0.0000 0.1774 0.0000
vt 0.9835 0.4735 0.0000
vt 0.9342 0.7039 0.0000
vt 0.8519 0.8684 0.0000
vt 0.7368 0.9671 0.0000
vt 0.5887 1.0000 0.0000
vt 0.4113 1.0000 0.0000
vt 0.2632 0.9671 0.0000
vt 0.1481 0.8684 0.0000
vt 0.0658 0.7039 0.0000
vt 0.0165 0.4735 0.0000
vt 1.0000 0.5244 0.0000
vt 1.0000 0.6111 0.0000
vt 0.0000 0.6111 0.0000
vt 0.0000 0.5244 0.0000
vt 1.0000 0.4376 0.0000
vt 0.0000 0.4376 0.0000
vt 1.0000 0.3509 0.0000
vt 0.0000 0.3509 0.0000
vt 1.0000 0.2641 0.0000
vt 0.0000 0.2641 0.0000
# 60 texture coords

g Box024
s 1
f 1/1/1 2/2/2 3/3/2 4/4/1 
s 2
f 5/5/3 6/6/3 7/7/3 8/8/3 
s 1
f 9/9/4 10/10/4 6/7/5 5/8/5 
s 4
f 4/11/6 3/12/6 11/13/6 12/14/6 
f 4/11/6 12/14/6 13/15/6 14/16/6 
f 4/11/6 14/16/6 15/17/6 16/10/6 
f 4/11/6 16/10/6 7/7/6 6/8/6 
f 17/18/6 4/11/6 6/8/6 18/19/6 
f 19/20/6 18/19/6 6/8/6 20/21/6 
f 21/22/6 20/21/6 6/8/6 10/9/6 
s 1
f 16/9/7 22/10/7 8/7/8 7/8/8 
s 4
f 2/11/9 1/12/9 23/13/9 24/14/9 
f 2/11/9 24/14/9 25/15/9 26/16/9 
f 2/11/9 26/16/9 27/17/9 9/10/9 
f 2/11/9 9/10/9 5/7/9 8/8/9 
f 28/18/9 2/11/9 8/8/9 29/19/9 
f 30/20/9 29/19/9 8/8/9 31/21/9 
f 32/22/9 31/21/9 8/8/9 22/9/9 
s 1
f 11/23/10 3/24/2 2/25/2 28/26/10 
f 23/23/11 1/24/1 4/25/1 17/26/11 
f 12/27/12 11/23/10 28/26/10 29/28/12 
f 13/29/13 12/27/12 29/28/12 30/30/13 
f 14/31/14 13/29/13 30/30/13 31/32/14 
f 15/33/15 14/31/14 31/32/14 32/34/15 
f 16/9/7 15/33/15 32/34/15 22/10/7 
f 24/27/16 23/23/11 17/26/11 18/28/16 
f 25/29/17 24/27/16 18/28/16 19/30/17 
f 26/31/18 25/29/17 19/30/17 20/32/18 
f 27/33/19 26/31/18 20/32/18 21/34/19 
f 9/9/4 27/33/19 21/34/19 10/10/4 
s 2
f 33/6/6 34/7/6 35/8/6 36/5/6 
s 4
f 37/5/9 38/6/9 39/7/9 40/8/9 
s 8
f 33/5/5 36/6/5 38/7/5 37/8/5 
s 16
f 36/5/3 35/6/3 39/7/3 38/8/3 
s 32
f 35/5/8 34/6/8 40/7/8 39/8/8 
s 64
f 34/5/20 33/6/20 37/7/20 40/8/20 
s 1
f 41/6/20 42/7/20 35/8/20 36/5/20 
s 2
f 43/35/21 44/36/21 45/37/22 46/38/22 
f 41/5/5 36/6/5 47/39/23 48/40/23 
s 4
f 35/6/6 49/39/6 50/41/6 51/42/6 
f 35/6/6 51/42/6 52/43/6 53/44/6 
f 35/6/6 53/44/6 45/45/6 36/5/6 
f 45/45/6 44/46/6 54/47/6 55/48/6 
f 45/45/6 55/48/6 56/49/6 57/50/6 
f 45/45/6 57/50/6 47/40/6 36/5/6 
s 2
f 35/5/8 42/6/8 58/39/24 49/40/24 
s 4
f 41/6/9 48/39/9 59/41/9 60/42/9 
f 41/6/9 60/42/9 61/43/9 62/44/9 
f 41/6/9 62/44/9 43/45/9 42/5/9 
f 43/45/9 46/46/9 63/47/9 64/48/9 
f 43/45/9 64/48/9 65/49/9 66/50/9 
f 43/45/9 66/50/9 58/40/9 42/5/9 
s 2
f 54/51/25 44/52/21 43/53/21 62/54/25 
f 63/51/26 46/52/22 45/53/22 53/54/26 
f 55/55/27 54/51/25 62/54/25 61/56/27 
f 56/57/28 55/55/27 61/56/27 60/58/28 
f 57/59/29 56/57/28 60/58/28 59/60/29 
f 47/39/23 57/59/29 59/60/29 48/40/23 
f 64/55/30 63/51/26 53/54/26 52/56/30 
f 65/57/31 64/55/30 52/56/30 51/58/31 
f 66/59/32 65/57/31 51/58/31 50/60/32 
f 58/39/24 66/59/32 50/60/32 49/40/24 
# 62 polygons

